<?xml version="1.0" encoding="utf-8"?>
<!-- Generator: Adobe Illustrator 18.0.0, SVG Export Plug-In . SVG Version: 6.00 Build 0)  -->
<!DOCTYPE svg PUBLIC "-//W3C//DTD SVG 1.1//EN" "http://www.w3.org/Graphics/SVG/1.1/DTD/svg11.dtd">
<svg width="20" height="20" version="1.1" id="Layer_1" xmlns="http://www.w3.org/2000/svg" xmlns:xlink="http://www.w3.org/1999/xlink" x="0px" y="0px"
	 viewBox="0 0 20 20" enable-background="new 0 0 20 20" xml:space="preserve">
<g>
	<path fill="#856363" d="M16,18.1c1,0,1.8-0.8,1.8-1.8V4.5c0-1-0.8-1.8-1.8-1.8H4.6c-1,0-1.8,0.8-1.8,1.8v11.7c0,1,0.8,1.8,1.8,1.8
		H16V18.1z"/>
</g>
<path fill="#E6E2DD" stroke="#E6E2DD" stroke-miterlimit="10" d="M14.6,14.1c-3.1,0-6.1,0-9.2,0.1c0,0,0.3-2.1,0.4-2.3
	c0.1-0.8,0.3-1.5,0.6-2.3c0.3-1,0.8-2,1.5-2.7c0.9-1,2.1-1.4,3.2-0.8c1.4,0.7,2.1,2.6,2.6,4.2c0.1,0.3,0.2,0.7,0.3,1
	c0.2,0.8,0.3,1.6,0.4,2.4c0,0.1,0,0.3,0.1,0.4"/>
</svg>
