<?xml version="1.0" encoding="utf-8"?>
<!-- Generator: Adobe Illustrator 17.1.0, SVG Export Plug-In . SVG Version: 6.00 Build 0)  -->
<!DOCTYPE svg PUBLIC "-//W3C//DTD SVG 1.1//EN" "http://www.w3.org/Graphics/SVG/1.1/DTD/svg11.dtd">
<svg version="1.1" id="Layer_1" xmlns="http://www.w3.org/2000/svg" xmlns:xlink="http://www.w3.org/1999/xlink" x="0px" y="0px"
	 viewBox="0 0 25 25" enable-background="new 0 0 25 25" xml:space="preserve">
<path fill="#856363" d="M7,15.6c0.9,1.2,0.7,2.8-0.5,3.8c-1.2,0.9-2.9,0.7-3.8-0.4c-0.9-1.2-0.7-2.8,0.5-3.8
	C4.4,14.3,6.1,14.5,7,15.6z"/>
<g>
	<polygon fill="#6a4f4f" points="7.9,13.9 8.9,15.2 20.3,7.5 18.1,4.6 	"/>
</g>
<g>
	<polygon fill="#6a4f4f" points="3.5,13.1 5.1,12.8 4.9,3.5 1.3,4 	"/>
</g>
<g>
	<polygon fill="#6a4f4f" points="5.8,12.9 7.3,13.5 12.5,3.6 9.2,2.3 	"/>
</g>
<g>
	<polygon fill="#6a4f4f" points="8.6,19.7 9.2,18.2 18.3,20.6 16.9,24 	"/>
</g>
<g>
	<polygon fill="#6a4f4f" points="9.3,17.4 9.1,15.8 20,13.2 20.5,16.8 	"/>
</g>
</svg>
