<?xml version="1.0" encoding="utf-8"?>
<!-- Generator: Adobe Illustrator 18.0.0, SVG Export Plug-In . SVG Version: 6.00 Build 0)  -->
<!DOCTYPE svg PUBLIC "-//W3C//DTD SVG 1.1//EN" "http://www.w3.org/Graphics/SVG/1.1/DTD/svg11.dtd">
<svg width="20" height="20" version="1.1" id="Layer_1" xmlns="http://www.w3.org/2000/svg" xmlns:xlink="http://www.w3.org/1999/xlink" x="0px" y="0px"
	 viewBox="0 0 20 20" enable-background="new 0 0 20 20" xml:space="preserve">
<g>
	<path fill="#e6e2dd" d="M4.6,3C3.8,3,3.1,3.7,3.1,4.5v11.7c0,0.8,0.7,1.5,1.5,1.5H16c0.8,0,1.5-0.7,1.5-1.5V4.5
		C17.5,3.7,16.8,3,16,3H4.6z"/>
	<path fill="#856363" d="M16,18.1c1,0,1.8-0.8,1.8-1.8V4.5c0-1-0.8-1.8-1.8-1.8H4.6c-1,0-1.8,0.8-1.8,1.8v11.7c0,1,0.8,1.8,1.8,1.8
		H16V18.1z"/>
	<path fill="#e6e2dd" d="M16.7,13.6c-0.3,0-0.5-0.1-0.7-0.2c-0.2-0.1-0.5-0.2-0.8-0.2s-0.5,0.1-0.8,0.2c-0.2,0.1-0.5,0.2-0.7,0.2
		c-0.3,0-0.5-0.1-0.7-0.2c-0.2-0.1-0.5-0.2-0.8-0.2s-0.5,0.1-0.8,0.2c-0.2,0.1-0.5,0.2-0.7,0.2c-0.3,0-0.5-0.1-0.7-0.2
		c-0.2-0.1-0.5-0.2-0.8-0.2s-0.5,0.1-0.8,0.2c-0.2,0.1-0.5,0.2-0.7,0.2c-0.3,0-0.5-0.1-0.7-0.2c-0.2-0.1-0.5-0.2-0.8-0.2
		s-0.5,0.1-0.8,0.2c-0.2,0.1-0.5,0.2-0.7,0.2v-1.1c0.3,0,0.5-0.1,0.7-0.2c0.2-0.1,0.5-0.2,0.8-0.2s0.5,0.1,0.8,0.2
		c0.2,0.1,0.5,0.2,0.7,0.2c0.3,0,0.5-0.1,0.7-0.2c0.2-0.1,0.5-0.2,0.8-0.2s0.5,0.1,0.8,0.2c0.2,0.1,0.5,0.2,0.7,0.2
		c0.3,0,0.5-0.1,0.7-0.2c0.2-0.1,0.5-0.2,0.8-0.2s0.5,0.1,0.8,0.2c0.2,0.1,0.5,0.2,0.7,0.2c0.3,0,0.5-0.1,0.7-0.2
		c0.2-0.1,0.5-0.2,0.8-0.2s0.5,0.1,0.8,0.2c0.2,0.1,0.5,0.2,0.7,0.2V13.6z"/>
	<path fill="#e6e2dd" d="M13.7,8.9l2.2,0.2L15.7,8l-1.6-0.1c-0.4,0-0.4,0.4-0.4,0.4V8.9z"/>
	<ellipse fill="#e6e2dd" cx="9.7" cy="7.9" rx="0.7" ry="0.7"/>
	<path fill="#e6e2dd" d="M5.3,11.5c0.1,0,0.2-0.1,0.3-0.1c0.2-0.1,0.5-0.2,0.8-0.2s0.5,0.1,0.8,0.2c0.2,0.1,0.5,0.2,0.7,0.2
		c0.3,0,0.5-0.1,0.7-0.2c0.2-0.1,0.5-0.2,0.8-0.2s0.5,0.1,0.8,0.2c0.2,0.1,0.5,0.2,0.7,0.2c0.3,0,0.5-0.1,0.7-0.2
		c0.2-0.1,0.5-0.2,0.8-0.2s0.5,0.1,0.8,0.2c0.2,0.1,0.5,0.2,0.7,0.2c0.3,0,0.5-0.1,0.7-0.2c0.2-0.1,0.5-0.2,0.8-0.2s0.5,0.1,0.8,0.2
		c0.2,0.1,0.5,0.2,0.7,0.2l-0.2-2l-9-0.8l1.4-1.4L8.3,7.3L6.9,8.7L4,8.5C4,9.5,5.1,11.2,5.3,11.5L5.3,11.5z"/>
</g>
</svg>
