<?xml version="1.0" encoding="utf-8"?>
<!-- Generator: Adobe Illustrator 18.0.0, SVG Export Plug-In . SVG Version: 6.00 Build 0)  -->
<!DOCTYPE svg PUBLIC "-//W3C//DTD SVG 1.1//EN" "http://www.w3.org/Graphics/SVG/1.1/DTD/svg11.dtd">
<svg width="20" height="20" version="1.1" id="Layer_1" xmlns="http://www.w3.org/2000/svg" xmlns:xlink="http://www.w3.org/1999/xlink" x="0px" y="0px"
	 viewBox="0 0 20 20" enable-background="new 0 0 20 20" xml:space="preserve">
<g>
	<path fill="#e6e2dd" d="M4.6,2.9c-0.8,0-1.5,0.7-1.5,1.6v12c0,0.9,0.7,1.6,1.5,1.6H16c0.8,0,1.5-0.7,1.5-1.6v-12
		c0-0.9-0.7-1.6-1.5-1.6H4.6z"/>
	<path fill="#856363" d="M16,18.3c1,0,1.8-0.8,1.8-1.9v-12c0-1-0.8-1.9-1.8-1.9H4.6c-1,0-1.8,0.8-1.8,1.9v12c0,1,0.8,1.9,1.8,1.9H16
		z"/>
	<path fill="#e6e2dd" d="M7.7,14.6l2.6-5.3l2.6,5.3H7.7z M15.3,14.6l-4.9-9.9l-4.9,9.9h-1v0.7h11.9v-0.7H15.3z"/>
</g>
</svg>
