<?xml version="1.0" encoding="utf-8"?>
<!-- Generator: Adobe Illustrator 17.1.0, SVG Export Plug-In . SVG Version: 6.00 Build 0)  -->
<!DOCTYPE svg PUBLIC "-//W3C//DTD SVG 1.1//EN" "http://www.w3.org/Graphics/SVG/1.1/DTD/svg11.dtd">
<svg version="1.1" id="Layer_1" xmlns="http://www.w3.org/2000/svg" xmlns:xlink="http://www.w3.org/1999/xlink" x="0px" y="0px"
	 viewBox="0 0 125 125" enable-background="new 0 0 125 125" xml:space="preserve">
<rect x="-1" fill="#856363" width="126" height="126"/>
<g>
	<g>
		<path fill="#E6E2DD" d="M112.1,75.6c-0.5,3.2-1.2,6.3-2.2,9.8c-0.5,2.1-1.2,4-2.2,6.1c-1,1.9-2.2,3.4-3.7,5
			c-2.7,3.4-6.7,5.8-10.4,7.9c-1.5,0.8-3,1.9-4.4,2.6c-4.7,2.9-10.6,4-14.3,7.9c7.1-9.5,15.3-19.3,21.9-29.1
			c1.5-2.1,3.7-9.8,3.9-12.7c-3.9,5.3-7.6,10.8-11.8,15.9c-3.9,5-8.1,10.6-13.1,14.8c-0.5-2.6-2.2-5.3-2.7-8.2
			c-0.5-2.6-0.7-5.6,0.2-8.2c1.2-3.4,3.7-6.1,6.4-7.9c3.2-2.4,6.4-4.8,9.9-6.6c3.7-2.1,7.6-4.2,11.1-7.1c4.9-4,9.6-8.5,13.8-13.5
			c0.7-0.8,1.5-1.9,2-2.6c-0.7,1.1-1,3.4-1.2,4.5c-1.2,5.6-1.5,11.4-2.5,16.9C112.8,72.7,112.6,74,112.1,75.6z"/>
		<path fill="#E6E2DD" d="M74.9,115.2c-0.1,0-0.1,0-0.2-0.1c-0.1-0.1-0.1-0.2,0-0.3c2.5-3.3,5.1-6.7,7.7-10
			c4.9-6.3,9.9-12.7,14.3-19.1c1.3-1.8,3.2-8.3,3.8-11.6c-1.1,1.5-2.2,3.1-3.3,4.6c-2.5,3.5-5.2,7.2-8,10.5l-1,1.3
			c-3.7,4.7-7.6,9.7-12.1,13.5c-0.1,0.1-0.2,0.1-0.2,0s-0.1-0.1-0.2-0.2c-0.2-1.2-0.7-2.5-1.3-3.8c-0.6-1.4-1.2-2.9-1.4-4.4
			c-0.4-2.4-0.8-5.5,0.3-8.3c1.4-4,4.3-6.6,6.5-8.1c3.2-2.3,6.4-4.8,9.9-6.6l1.3-0.7c3.3-1.9,6.7-3.8,9.8-6.4
			c5.1-4.1,9.8-8.7,13.8-13.5c0.6-0.6,1.2-1.5,1.8-2.4c0-0.1,0.1-0.1,0.1-0.2c0.1-0.1,0.2-0.1,0.3-0.1c0.1,0.1,0.1,0.2,0.1,0.3
			l-0.1,0.2c-0.5,0.8-0.7,2.2-0.9,3.2c-0.1,0.4-0.1,0.7-0.2,1c-0.7,3.1-1.1,6.4-1.5,9.6c-0.3,2.4-0.6,4.9-1,7.3
			c0,1.5-0.2,2.8-0.7,4.5c-0.5,3-1.2,6.1-2.2,9.8c-0.4,1.9-1.1,3.7-2.2,6.1c-0.9,1.7-2.1,3.3-3.7,5.1c-2.7,3.4-6.6,5.8-10.4,8
			c-0.7,0.4-1.5,0.9-2.2,1.3c-0.7,0.5-1.5,0.9-2.2,1.3c-1.8,1.1-3.8,2-5.7,2.8c-3.2,1.4-6.3,2.7-8.5,5.1
			C75,115.2,75,115.2,74.9,115.2z M100.8,73C100.8,73,100.8,73,100.8,73c0.2,0.1,0.3,0.2,0.2,0.3c-0.2,2.8-2.4,10.6-4,12.8
			c-4.4,6.4-9.4,12.9-14.3,19.2c-2,2.6-4.1,5.3-6.1,8c2-1.5,4.4-2.5,6.8-3.5c1.9-0.8,3.9-1.7,5.7-2.8c0.7-0.4,1.5-0.9,2.2-1.3
			c0.7-0.5,1.5-0.9,2.2-1.3c3.8-2.1,7.6-4.5,10.3-7.9c1.6-1.8,2.8-3.3,3.7-5c1.1-2.4,1.8-4.2,2.2-6c1-3.6,1.7-6.7,2.2-9.8
			c0.5-1.7,0.7-3,0.7-4.5c0.4-2.4,0.7-4.9,1-7.3c0.4-3.2,0.8-6.5,1.5-9.7c0.1-0.3,0.1-0.6,0.2-1c0.1-0.5,0.2-1.1,0.3-1.6
			c-0.3,0.4-0.6,0.7-0.8,1c-4,4.8-8.7,9.4-13.8,13.5c-3.1,2.6-6.5,4.5-9.8,6.4l-1.3,0.7c-3.4,1.8-6.7,4.3-9.8,6.6
			c-2.1,1.5-5,4-6.3,7.8c-1,2.8-0.7,5.8-0.2,8.1c0.3,1.5,0.8,2.9,1.4,4.3c0.5,1.2,0.9,2.3,1.2,3.5c4.4-3.8,8.1-8.6,11.7-13.2l1-1.3
			c2.8-3.4,5.4-7,7.9-10.5c1.3-1.8,2.6-3.6,3.9-5.3C100.6,73,100.7,73,100.8,73z"/>
	</g>
</g>
<g>
	<path fill="#E6E2DD" d="M8.1,13.7h4.3c5,0,8,2.7,8,8.1c0,5.4-3,8.2-7.8,8.2H8.1V13.7z M12.3,27.7c3.3,0,5.2-1.9,5.2-5.9
		c0-4-1.9-5.7-5.2-5.7H11v11.6H12.3z"/>
	<path fill="#E6E2DD" d="M21.8,13.7h9.8v2.4h-6.9v4.2h5.9v2.4h-5.9v4.8h7.2V30H21.8V13.7z"/>
	<path fill="#E6E2DD" d="M31.1,13.7h3.1l2.3,8.2c0.5,1.8,0.9,3.4,1.4,5.3H38c0.5-1.9,0.9-3.5,1.4-5.3l2.3-8.2h2.9l-5,16.3h-3.4
		L31.1,13.7z"/>
	<path fill="#E6E2DD" d="M44.7,13.7h2.9V30h-2.9V13.7z"/>
	<path fill="#E6E2DD" d="M49.8,13.7h2.9v13.9h6.8V30h-9.7V13.7z"/>
	<path fill="#E6E2DD" d="M57.7,19c1.4-0.8,2.1-1.7,2.1-3.1c-0.1,0-0.2,0-0.2,0c-0.9,0-1.6-0.6-1.6-1.5c0-1,0.7-1.7,1.6-1.7
		c1.3,0,2,1,2,2.8c0,2.2-1,3.8-3.1,4.9L57.7,19z"/>
	<path fill="#E6E2DD" d="M63.6,25.9c1.2,1.1,2.7,1.8,4.3,1.8c1.8,0,2.8-0.8,2.8-2.1c0-1.4-1-1.8-2.5-2.4l-2.2-1
		c-1.6-0.7-3.3-1.9-3.3-4.3c0-2.6,2.3-4.6,5.5-4.6c1.9,0,3.8,0.8,5,2.1l-1.5,1.8c-1-0.9-2.2-1.4-3.5-1.4c-1.5,0-2.5,0.7-2.5,1.9
		c0,1.3,1.2,1.8,2.6,2.3l2.2,0.9c1.9,0.8,3.3,2,3.3,4.4c0,2.6-2.2,4.8-5.9,4.8c-2.2,0-4.3-0.9-5.9-2.4L63.6,25.9z"/>
</g>
<g>
	<path fill="#E6E2DD" d="M8.6,39h2.9v13.9h6.8v2.4H8.6V39z"/>
	<path fill="#E6E2DD" d="M26.8,50.9h-5.5L20,55.3h-3L22.4,39h3.4l5.3,16.3H28L26.8,50.9z M26.1,48.6l-0.6-2c-0.5-1.7-1-3.6-1.5-5.4
		H24c-0.4,1.8-0.9,3.7-1.4,5.4l-0.6,2H26.1z"/>
	<path fill="#E6E2DD" d="M31.2,39h2.9v7.4h0.1L40,39h3.2l-5,6.4l5.9,10h-3.2l-4.4-7.7l-2.3,2.9v4.8h-2.9V39z"/>
	<path fill="#E6E2DD" d="M44.2,39H54v2.4h-6.9v4.2h5.9v2.4h-5.9v4.8h7.2v2.4H44.2V39z"/>
</g>
<g>
	<path fill="#E6E2DD" d="M9.6,78.3c1.2,1.1,2.7,1.8,4.3,1.8c1.8,0,2.8-0.8,2.8-2.1c0-1.4-1-1.8-2.5-2.4l-2.2-1
		c-1.6-0.7-3.3-1.9-3.3-4.3c0-2.6,2.3-4.6,5.5-4.6c1.9,0,3.8,0.8,5,2.1l-1.5,1.8c-1-0.9-2.1-1.4-3.5-1.4c-1.5,0-2.5,0.7-2.5,1.9
		c0,1.3,1.2,1.8,2.6,2.3l2.2,0.9c1.9,0.8,3.3,2,3.3,4.4c0,2.6-2.2,4.8-5.9,4.8c-2.2,0-4.3-0.9-5.9-2.4L9.6,78.3z"/>
	<path fill="#E6E2DD" d="M23.6,68.4h-4.7V66h12.3v2.4h-4.7v13.9h-2.9V68.4z"/>
	<path fill="#E6E2DD" d="M38.5,77.9h-5.5l-1.3,4.4h-3L34.2,66h3.4l5.3,16.3h-3.1L38.5,77.9z M37.9,75.6l-0.6-2
		c-0.5-1.7-1-3.6-1.5-5.4h-0.1c-0.4,1.8-0.9,3.7-1.4,5.4l-0.6,2H37.9z"/>
	<path fill="#E6E2DD" d="M45.3,68.4h-4.7V66h12.3v2.4h-4.7v13.9h-2.9V68.4z"/>
	<path fill="#E6E2DD" d="M53.7,66h9.8v2.4h-6.9v4.2h5.9v2.4h-5.9v4.8h7.2v2.4H53.7V66z"/>
</g>
<g>
	<path fill="#E6E2DD" d="M11,92.7h5.4c3.5,0,6.1,1.2,6.1,5c0,3.6-2.7,5.3-6.1,5.3h-2.6v6H11V92.7z M16.2,100.7c2.4,0,3.6-1,3.6-3
		c0-2-1.2-2.7-3.6-2.7h-2.3v5.7H16.2z"/>
	<path fill="#E6E2DD" d="M29.9,104.6h-5.4l-1.3,4.4h-2.9l5.3-16.3h3.4l5.3,16.3h-3L29.9,104.6z M29.2,102.4l-0.6-2
		c-0.5-1.7-1-3.6-1.5-5.4h-0.1c-0.4,1.8-0.9,3.7-1.4,5.4l-0.6,2H29.2z"/>
	<path fill="#E6E2DD" d="M43,109.1l-3.5-6.4h-2.4v6.4h-2.9V92.7h5.4c3.4,0,5.9,1.2,5.9,4.8c0,2.5-1.3,4-3.2,4.7l3.8,6.8H43z
		 M37.1,100.4h2.3c2.2,0,3.4-0.9,3.4-2.8c0-1.9-1.2-2.5-3.4-2.5h-2.3V100.4z"/>
	<path fill="#E6E2DD" d="M47.1,92.7h2.9v7.4H50l5.7-7.4h3.2l-5,6.4l5.8,10h-3.2l-4.3-7.7l-2.3,2.9v4.8h-2.9V92.7z"/>
</g>
<path fill="#E6E2DD" d="M123.5,125H1.5c-0.8,0-1.5-0.7-1.5-1.5V1.5C0,0.7,0.7,0,1.5,0h122c0.8,0,1.5,0.7,1.5,1.5v122
	C125,124.3,124.3,125,123.5,125z M3,122h119V3H3V122z"/>
</svg>
