<?xml version="1.0" encoding="utf-8"?>
<!-- Generator: Adobe Illustrator 18.1.0, SVG Export Plug-In . SVG Version: 6.00 Build 0)  -->
<svg width="20" height="20" version="1.1" id="Layer_1" xmlns="http://www.w3.org/2000/svg" xmlns:xlink="http://www.w3.org/1999/xlink" x="0px" y="0px"
	 viewBox="-295 387 20 20" enable-background="new -295 387 20 20" xml:space="preserve">
<g>
	<path fill="#E6E2DD" d="M-290.4,389.9c-0.8,0-1.5,0.7-1.5,1.6v12c0,0.9,0.7,1.6,1.5,1.6h11.4c0.8,0,1.5-0.7,1.5-1.6v-12
		c0-0.9-0.7-1.6-1.5-1.6H-290.4z"/>
	<path fill="#856363" d="M-279,405.3c1,0,1.8-0.8,1.8-1.9v-12c0-1-0.8-1.9-1.8-1.9h-11.4c-1,0-1.8,0.8-1.8,1.9v12
		c0,1,0.8,1.9,1.8,1.9H-279z"/>
</g>
<path fill="#E6E2DD" d="M-279.6,392.3c-1.9-1.9-5.1-1.9-7,0c-1.9,1.9-1.9,5.1,0,7c1.9,1.9,5.1,1.9,7,0
	C-277.7,397.4-277.7,394.2-279.6,392.3z M-280.2,398.8c-1.6,1.6-4.3,1.6-5.9,0c-1.6-1.6-1.6-4.3,0-5.9c1.6-1.6,4.3-1.6,5.9,0
	C-278.5,394.5-278.5,397.1-280.2,398.8z"/>
<polygon fill="#E6E2DD" points="-287.5,399.1 -286.4,400.3 -290.1,404 -291.2,402.8 "/>
</svg>
