<?xml version="1.0" encoding="utf-8"?>
<!-- Generator: Adobe Illustrator 18.0.0, SVG Export Plug-In . SVG Version: 6.00 Build 0)  -->
<!DOCTYPE svg PUBLIC "-//W3C//DTD SVG 1.1//EN" "http://www.w3.org/Graphics/SVG/1.1/DTD/svg11.dtd">
<svg width="20" height="20" version="1.1" id="Layer_1" xmlns="http://www.w3.org/2000/svg" xmlns:xlink="http://www.w3.org/1999/xlink" x="0px" y="0px"
	 viewBox="0 0 20 20" enable-background="new 0 0 20 20" xml:space="preserve">
<g>
	<path fill="#e6e2dd" d="M4.6,2.9c-0.8,0-1.5,0.7-1.5,1.6v12c0,0.9,0.7,1.6,1.5,1.6H16c0.8,0,1.5-0.7,1.5-1.6v-12
		c0-0.9-0.7-1.6-1.5-1.6H4.6z"/>
	<path fill="#866463" d="M16,18.3c1,0,1.8-0.8,1.8-1.9v-12c0-1-0.8-1.9-1.8-1.9H4.6c-1,0-1.8,0.8-1.8,1.9v12c0,1,0.8,1.9,1.8,1.9H16
		z"/>
	<path fill="#e6e2dd" d="M10.5,11.5c-0.2-0.2-0.2-0.6,0-0.8c0.2-0.2,0.6-0.2,0.8,0l1.1,1.2v-1.6c0-0.3,0.2-0.6,0.5-0.6
		c0.3,0,0.5,0.3,0.5,0.6v1.6l1.1-1.2c0.2-0.2,0.6-0.2,0.8,0c0.2,0.2,0.2,0.6,0,0.8l-1.1,1.2l1.5,0c0.3,0,0.5,0.3,0.5,0.6
		c0,0.3-0.2,0.6-0.5,0.6h-1.5l1.1,1.2c0.2,0.2,0.2,0.6,0,0.8c-0.2,0.2-0.6,0.2-0.8,0l-1.1-1.2l0,1.6c0,0.3-0.2,0.6-0.5,0.6
		c-0.3,0-0.5-0.3-0.5-0.6v-1.6l-1.1,1.2c-0.2,0.2-0.6,0.2-0.8,0c-0.2-0.2-0.2-0.6,0-0.8l1.1-1.2H10c-0.3,0-0.5-0.3-0.5-0.6
		c0-0.3,0.2-0.6,0.5-0.6h1.5L10.5,11.5z"/>
	<path fill="#e6e2dd" d="M9.9,5.6c0-0.3-0.2-0.6-0.5-0.6C9,5.1,8.8,5.3,8.8,5.6V8L5.6,4.7C5.4,4.4,5,4.4,4.8,4.7
		c-0.2,0.2-0.2,0.6,0,0.8L8,8.8H5.7c-0.3,0-0.5,0.3-0.5,0.6c0,0.3,0.2,0.6,0.5,0.6l3.6,0c0.1,0,0.3-0.1,0.4-0.2
		c0.1-0.1,0.2-0.3,0.2-0.4L9.9,5.6z"/>
</g>
</svg>
