<?xml version="1.0" encoding="utf-8"?>
<!-- Generator: Adobe Illustrator 18.1.0, SVG Export Plug-In . SVG Version: 6.00 Build 0)  -->
<svg width="20" height="20" version="1.1" id="Layer_1" xmlns="http://www.w3.org/2000/svg" xmlns:xlink="http://www.w3.org/1999/xlink" x="0px" y="0px"
	 viewBox="-295 387 20 20" enable-background="new -295 387 20 20" xml:space="preserve">
<g>
	<path fill="#E6E2DD" d="M-290.4,389.9c-0.8,0-1.5,0.7-1.5,1.6v12c0,0.9,0.7,1.6,1.5,1.6h11.4c0.8,0,1.5-0.7,1.5-1.6v-12
		c0-0.9-0.7-1.6-1.5-1.6H-290.4z"/>
	<path fill="#856363" d="M-279,405.3c1,0,1.8-0.8,1.8-1.9v-12c0-1-0.8-1.9-1.8-1.9h-11.4c-1,0-1.8,0.8-1.8,1.9v12
		c0,1,0.8,1.9,1.8,1.9H-279z"/>
</g>
<g>
	<path fill="#E6E2DD" d="M-285,392c2.8,0,5,2.2,5,5s-2.2,5-5,5c-2.8,0-5-2.2-5-5S-287.8,392-285,392 M-285,391.4
		c-1.5,0-2.9,0.6-4,1.6c-1.1,1.1-1.6,2.5-1.6,4s0.6,2.9,1.6,4c1.1,1.1,2.5,1.6,4,1.6s2.9-0.6,4-1.6c1.1-1.1,1.6-2.5,1.6-4
		s-0.6-2.9-1.6-4C-282.1,392-283.5,391.4-285,391.4L-285,391.4z"/>
</g>
<polyline fill="none" stroke="#E6E2DD" points="-285,393.1 -285,397 -283.2,398.8 "/>
</svg>
