<?xml version="1.0" encoding="utf-8"?>
<!-- Generator: Adobe Illustrator 17.1.0, SVG Export Plug-In . SVG Version: 6.00 Build 0)  -->
<!DOCTYPE svg PUBLIC "-//W3C//DTD SVG 1.1//EN" "http://www.w3.org/Graphics/SVG/1.1/DTD/svg11.dtd">
<svg version="1.1" id="Layer_1" xmlns="http://www.w3.org/2000/svg" xmlns:xlink="http://www.w3.org/1999/xlink" x="0px" y="0px"
	 viewBox="0 0 27 27" enable-background="new 0 0 27 27" xml:space="preserve">
<g>
	<path fill="#665B52" stroke="#665B52" stroke-width="0.5" stroke-linejoin="round" stroke-miterlimit="15" d="M20.2,11.1
		c-0.2,1.2-0.5,2.4-0.9,3.7c-0.2,0.8-0.5,1.5-0.9,2.3c-0.4,0.7-0.9,1.3-1.5,1.9c-1.1,1.3-2.7,2.2-4.2,3c-0.6,0.3-1.2,0.7-1.8,1
		c-1.9,1.1-4.3,1.5-5.8,3c2.9-3.6,6.2-7.3,8.9-11c0.6-0.8,1.5-3.7,1.6-4.8c-1.6,2-3.1,4.1-4.8,6c-1.6,1.9-3.3,4-5.3,5.6
		c-0.2-1-0.9-2-1.1-3.1c-0.2-1-0.3-2.1,0.1-3.1c0.5-1.3,1.5-2.3,2.6-3c1.3-0.9,2.6-1.8,4-2.5c1.5-0.8,3.1-1.6,4.5-2.7
		c2-1.5,3.9-3.2,5.6-5.1c0.3-0.3,0.6-0.7,0.8-1c-0.3,0.4-0.4,1.3-0.5,1.7c-0.5,2.1-0.6,4.3-1,6.4C20.5,10,20.4,10.5,20.2,11.1z"/>
</g>
</svg>
