<?xml version="1.0" encoding="utf-8"?>
<!-- Generator: Adobe Illustrator 18.1.0, SVG Export Plug-In . SVG Version: 6.00 Build 0)  -->
<svg width="20" height="20" version="1.1" id="Layer_1" xmlns="http://www.w3.org/2000/svg" xmlns:xlink="http://www.w3.org/1999/xlink" x="0px" y="0px"
	 viewBox="-295 387 20 20" enable-background="new -295 387 20 20" xml:space="preserve">
<g>
	<path fill="#E6E2DD" d="M-290.4,389.9c-0.8,0-1.5,0.7-1.5,1.6v12c0,0.9,0.7,1.6,1.5,1.6h11.4c0.8,0,1.5-0.7,1.5-1.6v-12
		c0-0.9-0.7-1.6-1.5-1.6H-290.4z"/>
	<path fill="#856363" d="M-279,405.3c1,0,1.8-0.8,1.8-1.9v-12c0-1-0.8-1.9-1.8-1.9h-11.4c-1,0-1.8,0.8-1.8,1.9v12
		c0,1,0.8,1.9,1.8,1.9H-279z"/>
</g>
<line fill="none" stroke="#E6E2DD" stroke-miterlimit="10" x1="-289.1" y1="400.9" x2="-280.5" y2="400.9"/>
<path fill="#E6E2DD" stroke="#E6E2DD" stroke-miterlimit="10" d="M-288.5,401.3c-0.2-1.2-0.1-2.7,0.3-3.9c0.4-1.6,1.9-3.5,3.8-3.5
	c0.9,0,1.8,0.6,2.3,1.4c0.5,0.8,0.8,1.7,0.9,2.6c0.2,1.1,0.2,2.2,0.2,3.3"/>
</svg>
