<?xml version="1.0" encoding="utf-8"?>
<!-- Generator: Adobe Illustrator 18.0.0, SVG Export Plug-In . SVG Version: 6.00 Build 0)  -->
<!DOCTYPE svg PUBLIC "-//W3C//DTD SVG 1.1//EN" "http://www.w3.org/Graphics/SVG/1.1/DTD/svg11.dtd">
<svg version="1.1" id="Layer_1" xmlns="http://www.w3.org/2000/svg" xmlns:xlink="http://www.w3.org/1999/xlink" x="0px" y="0px"
	 viewBox="0 0 20 20" enable-background="new 0 0 20 20" xml:space="preserve">
<g>
	<path fill="#856363" d="M16,18.1c1,0,1.8-0.8,1.8-1.8V4.5c0-1-0.8-1.8-1.8-1.8H4.6c-1,0-1.8,0.8-1.8,1.8v11.7c0,1,0.8,1.8,1.8,1.8
		H16V18.1z"/>
</g>
<path fill="#FFFFFF" stroke="#FFFFFF" stroke-miterlimit="10" d="M13.9,14c-0.1-1-0.4-2-0.7-2.9c-0.3-0.9-0.5-1.8-0.9-2.6
	c-0.4-0.7-0.9-1.3-1.6-1.6C10,6.6,9.1,6.7,8.5,7.2c-0.6,0.5-0.8,1.2-1.1,2c-0.3,1.2-0.7,2.4-1,3.5c-0.1,0.4-0.2,0.9,0.1,1.2
	C6.7,14,7,14.1,7.3,14c2.3,0,4.7,0,7,0"/>
</svg>
