<?xml version="1.0" encoding="utf-8"?>
<!-- Generator: Adobe Illustrator 18.0.0, SVG Export Plug-In . SVG Version: 6.00 Build 0)  -->
<!DOCTYPE svg PUBLIC "-//W3C//DTD SVG 1.1//EN" "http://www.w3.org/Graphics/SVG/1.1/DTD/svg11.dtd">
<svg width="20" height="20" version="1.1" id="Layer_1" xmlns="http://www.w3.org/2000/svg" xmlns:xlink="http://www.w3.org/1999/xlink" x="0px" y="0px"
	 viewBox="0 0 20 20" enable-background="new 0 0 20 20" xml:space="preserve">
<g>
	<path fill="#856363" d="M16,18.1c1,0,1.8-0.8,1.8-1.8V4.5c0-1-0.8-1.8-1.8-1.8H4.6c-1,0-1.8,0.8-1.8,1.8v11.7c0,1,0.8,1.8,1.8,1.8
		H16V18.1z"/>
</g>
<path fill="#e6e2dd" stroke="#e6e2dd" stroke-miterlimit="10" d="M14.7,14.6c-0.2-1.2-0.5-2.3-0.8-3.5c-0.3-1-0.6-2.1-1.1-3.1
	c-0.4-0.8-1.1-1.5-2-1.9C9.9,5.9,8.9,5.9,8.1,6.5C7.4,7,7.1,8,6.8,8.8C6.4,10.2,6,11.6,5.6,13c-0.1,0.5-0.3,1.1,0.1,1.4
	c0.2,0.2,0.6,0.2,1,0.2c2.8,0,5.6,0,8.5-0.1"/>
</svg>
