<?xml version="1.0" encoding="utf-8"?>
<!-- Generator: Adobe Illustrator 18.0.0, SVG Export Plug-In . SVG Version: 6.00 Build 0)  -->
<!DOCTYPE svg PUBLIC "-//W3C//DTD SVG 1.1//EN" "http://www.w3.org/Graphics/SVG/1.1/DTD/svg11.dtd">
<svg width="20" height="20" version="1.1" id="Layer_1" xmlns="http://www.w3.org/2000/svg" xmlns:xlink="http://www.w3.org/1999/xlink" x="0px" y="0px"
	 viewBox="0 0 20 20" enable-background="new 0 0 20 20" xml:space="preserve">
<g>
	<path fill="#e6e2dd" d="M4.6,3.1c-0.8,0-1.4,0.6-1.4,1.4v10.9c0,0.8,0.6,1.4,1.4,1.4h10.8c0.8,0,1.4-0.6,1.4-1.4V4.6
		c0-0.8-0.6-1.4-1.4-1.4L4.6,3.1L4.6,3.1z"/>
	<path fill="#856363" d="M15.4,17.2c0.9,0,1.7-0.8,1.7-1.7V4.6c0-0.9-0.8-1.7-1.7-1.7H4.6c-0.9,0-1.7,0.8-1.7,1.7v10.9
		c0,0.9,0.8,1.7,1.7,1.7H15.4z"/>
	<rect x="9.7" y="5.1" fill="#e6e2dd" width="0.8" height="9.6"/>
	<path fill="#e6e2dd" d="M7,6.8c0.5,0,0.9,0.4,1,0.7l0.7,2.2c0.1,0.5-0.5,0.7-0.6,0.2l-0.6-2H7.1l1,3.6H7.2v2.8c0,0.5-0.7,0.5-0.7,0
		v-2.8H6.1v2.8c0,0.5-0.7,0.5-0.7,0v-2.8H4.5l1-3.6H5.1l-0.6,2c-0.1,0.4-0.7,0.3-0.6-0.2l0.7-2.2C4.7,7.3,5,6.8,5.5,6.8H7z"/>
	<ellipse fill="#e6e2dd" cx="6.3" cy="5.9" rx="0.8" ry="0.8"/>
	<ellipse fill="#e6e2dd" cx="13.8" cy="5.9" rx="0.8" ry="0.8"/>
	<path fill="#e6e2dd" d="M12.7,14.2c0,0.2,0.2,0.4,0.4,0.4s0.4-0.2,0.4-0.4v-3.6h0.4v3.6c0,0.2,0.2,0.4,0.4,0.4s0.4-0.2,0.4-0.4V7.9
		h0.4v2.3c0,0.5,0.6,0.5,0.6,0V7.8c0-0.5-0.4-1-1-1h-2c-0.5,0-1,0.4-1,1v2.4c0,0.5,0.6,0.5,0.6,0V7.9h0.4L12.7,14.2z"/>
</g>
</svg>
