<?xml version="1.0" encoding="utf-8"?>
<!-- Generator: Adobe Illustrator 17.1.0, SVG Export Plug-In . SVG Version: 6.00 Build 0)  -->
<!DOCTYPE svg PUBLIC "-//W3C//DTD SVG 1.1//EN" "http://www.w3.org/Graphics/SVG/1.1/DTD/svg11.dtd">
<svg version="1.1" id="Layer_1" xmlns="http://www.w3.org/2000/svg" xmlns:xlink="http://www.w3.org/1999/xlink" x="0px" y="0px"
	 viewBox="0 0 40 50" enable-background="new 0 0 40 50" xml:space="preserve">
<path fill="#6a4f4f" stroke="#352727" stroke-width="0.5" d="M29.1,9.3c2,0,3.7-1.6,3.6-3.7c0-2-1.6-3.7-3.6-3.7c-2,0-3.6,1.7-3.6,3.7C25.5,7.7,27.1,9.3,29.1,9.3
	L29.1,9.3z"/>
<path fill="#6a4f4f" stroke="#352727" stroke-width="0.5" d="M28.6,32.8v12.9c0,2.3-3.4,2.3-3.4,0V32.8h-4.6l4.9-17.2h-0.8l-2.9,9.8c-0.7,2.1-3.6,1.3-2.9-1l3.2-10.7
	c0.3-1.2,1.9-3.4,4.5-3.4H29l0,0h2.6c2.6,0,4.1,2.2,4.5,3.4l3.2,10.6c0.6,2.3-2.2,3.2-2.9,1l-2.9-9.8h-0.8l4.9,17.2H33v13
	c0,2.3-3.4,2.3-3.4,0v-13L28.6,32.8L28.6,32.8z"/>
<path fill="#6a4f4f" stroke="#352727" stroke-width="0.5" d="M5.2,10.2c-2.6,0-4.6,2.2-4.6,4.9v11.5c0,2.2,3.2,2.2,3.2,0V16h0.8v29c0,3,4.2,2.9,4.2,0V28h0.7v17
	c0,2.9,4.2,3,4.2,0V16h0.7v10.5c0,2.2,3.1,2.2,3.1,0V15.1c0-2.5-1.9-4.9-4.7-4.9L5.2,10.2L5.2,10.2z"/>
<path fill="#6a4f4f" stroke="#352727" stroke-width="0.5" d="M9.1,9.1c2,0,3.6-1.6,3.6-3.7c0-2-1.6-3.7-3.6-3.7c-2,0-3.7,1.7-3.6,3.7C5.4,7.5,7.1,9.1,9.1,9.1L9.1,9.1z"
	/>
</svg>
