<?xml version="1.0" encoding="utf-8"?>
<!-- Generator: Adobe Illustrator 18.0.0, SVG Export Plug-In . SVG Version: 6.00 Build 0)  -->
<!DOCTYPE svg PUBLIC "-//W3C//DTD SVG 1.1//EN" "http://www.w3.org/Graphics/SVG/1.1/DTD/svg11.dtd">
<svg width="20" height="20" version="1.1" id="Layer_1" xmlns="http://www.w3.org/2000/svg" xmlns:xlink="http://www.w3.org/1999/xlink" x="0px" y="0px"
	 viewBox="0 0 20 20" enable-background="new 0 0 20 20" xml:space="preserve">
<g>
	<path fill="#e6e2dd" d="M4.6,3.1c-0.8,0-1.5,0.7-1.5,1.5v11.6c0,0.8,0.7,1.5,1.5,1.5H16c0.8,0,1.5-0.7,1.5-1.5V4.6
		c0-0.8-0.7-1.5-1.5-1.5H4.6z"/>
	<path fill="#856363" d="M16,18c1,0,1.8-0.8,1.8-1.8V4.6c0-1-0.8-1.8-1.8-1.8H4.6c-1,0-1.8,0.8-1.8,1.8v11.6c0,1,0.8,1.8,1.8,1.8H16
		z"/>
	<polygon fill="#e6e2dd" points="5.4,15.7 16.1,15.7 16.1,14.6 6.5,14.6 6.5,10.3 16.1,5.9 16.1,4.7 4.3,10.2 4.3,11.4 5.4,10.8 	
		"/>
</g>
</svg>
