<?xml version="1.0" encoding="utf-8"?>
<!-- Generator: Adobe Illustrator 18.1.0, SVG Export Plug-In . SVG Version: 6.00 Build 0)  -->
<svg width="20" height="20" version="1.1" id="Layer_1" xmlns="http://www.w3.org/2000/svg" xmlns:xlink="http://www.w3.org/1999/xlink" x="0px" y="0px"
	 viewBox="-295 387 20 20" enable-background="new -295 387 20 20" xml:space="preserve">
<g>
	<path fill="#E6E2DD" d="M-290.4,389.9c-0.8,0-1.5,0.7-1.5,1.6v12c0,0.9,0.7,1.6,1.5,1.6h11.4c0.8,0,1.5-0.7,1.5-1.6v-12
		c0-0.9-0.7-1.6-1.5-1.6H-290.4z"/>
	<path fill="#856363" d="M-279,405.3c1,0,1.8-0.8,1.8-1.9v-12c0-1-0.8-1.9-1.8-1.9h-11.4c-1,0-1.8,0.8-1.8,1.9v12
		c0,1,0.8,1.9,1.8,1.9H-279z"/>
</g>
<path fill="none" stroke="#E6E2DD" stroke-miterlimit="10" d="M-279.3,392.1c-0.8-0.4-1.8-0.1-2.4,0.5c-0.5,0.5-0.9,1.1-1.1,1.8
	c-0.4,1.1-0.6,2.2-0.9,3.4s-0.7,2.3-1.5,3.1c-0.6,0.6-1.4,1-2.3,1.3c-0.8,0.3-1.7,0.4-2.6,0.5"/>
</svg>
